<?xml version="1.0" encoding="utf-8"?>
<!-- Generator: Adobe Illustrator 26.0.1, SVG Export Plug-In . SVG Version: 6.00 Build 0)  -->
<svg version="1.1" id="Calque_1" xmlns="http://www.w3.org/2000/svg" xmlns:xlink="http://www.w3.org/1999/xlink" x="0px" y="0px"
	 viewBox="0 0 841.9 595.3" style="enable-background:new 0 0 841.9 595.3;" xml:space="preserve">
<style type="text/css">
	.st0{fill:#E6E6E6;}
	.st1{fill:#FFFFFF;}
	.st2{fill:#8DE2FC;}
</style>
<g>
	<path class="st0" d="M645,330.1c26.9,32.8,38,71.5,26.6,107c-21.2,66.1-112.4,96-203.7,66.7c-12.9-4.1-25.2-9.3-36.6-15.2
		c-7.2,7.4-15.3,14.3-24.3,20.7c-54.6,38.9-119.7,41.3-145.4,5.3c-13.4-18.8-13.4-44.4-2.4-70.2c-70.6-22.2-119.5-76.8-116.5-138
		c3.6-73.1,79.9-129.4,173.5-130.6c1-5.4,2.3-10.8,4-16.2C340.6,95.8,409.1,60.5,473,81c47.6,15.3,79.3,57.2,83.8,104
		c57.8-4.9,108.6,22.6,117.8,66.7C680.5,279.6,668.5,308.2,645,330.1z"/>
</g>
<g>
	<path class="st1" d="M528.9,347.6H344.5c-7.6,0-13.8-6.2-13.8-13.8V233.4c0-7.6,6.2-13.8,13.8-13.8h184.4c7.6,0,13.8,6.2,13.8,13.8
		v100.4C542.7,341.4,536.5,347.6,528.9,347.6z"/>
	<path d="M528.9,350.6H344.5c-9.3,0-16.8-7.5-16.8-16.8V233.4c0-9.3,7.5-16.8,16.8-16.8h184.4c9.3,0,16.8,7.5,16.8,16.8v100.4
		C545.7,343,538.2,350.6,528.9,350.6z M344.5,222.6c-5.9,0-10.8,4.8-10.8,10.8v100.4c0,5.9,4.8,10.8,10.8,10.8h184.4
		c5.9,0,10.8-4.8,10.8-10.8V233.4c0-5.9-4.8-10.8-10.8-10.8H344.5z"/>
</g>
<g>
	<g>
		<path d="M322.3,358.1l-63.2,38v12.4h355.3v-12.4l-73.5-38H322.3z M542.8,364.5l59.3,31.8H273.2l55.2-31.8h214.3L542.8,364.5z"/>
	</g>
	<g>
		<path d="M541.2,357.1l-0.1-0.1H322l-63.7,38.3l-0.2,0.1v14h357.3v-14L541.2,357.1z M614.9,409H258.6v-13.2l63.5-38.2h218.8
			l73.9,38.2V409z"/>
	</g>
	<g>
		<path d="M275.1,395.8h325L542.6,365h-214L275.1,395.8z M328.7,365.5h213.7l55.6,29.8H277L328.7,365.5z"/>
	</g>
</g>
<g>
	<g>
		<path class="st2" d="M446.8,265.5c-11.6-4.5-24.2,0.1-28.2,10.2c-4,10.1,2.2,22.1,13.8,26.6c11.6,4.5,24.2-0.1,28.2-10.2
			C464.5,282,458.3,270,446.8,265.5z M434.9,296.2l-0.8-1.8l-7.4-6.8l-1.9-0.9c2.8-5.7,5-9.9,6.5-12.5c1.5-2.6,2.7-4.6,4.8-3.8
			c0,0,0,0,0.1,0c1.8,0.8,1.6,2.4,1.3,3.8c-0.4,2.2-0.4,3.5,0,3.8c0,0,0,0,0,0c0.2,0.1,1.1,0,1.6-0.1c1.3-0.1,3.4-0.4,4.8,1.1
			c1.3,1.4,0.8,2.9,0.5,3.9c-0.1,0.4-0.3,1.1-0.2,1.3c0.3,0.6,2.7,0.9,3.7,1.1c1.9,0.3,3.8,0.6,4.4,2.3
			C453,290,451.5,291.5,434.9,296.2z"/>
	</g>
	<g>
		<path class="st2" d="M448.1,262.1c-13.8-5.4-28.8,0.1-33.4,12.1c-4.7,12,2.7,26.2,16.4,31.5c13.8,5.4,28.8-0.1,33.4-12.1
			C469.2,281.6,461.8,267.5,448.1,262.1z M431.8,304c-12.7-4.9-19.5-17.9-15.1-29c4.3-11.1,18.1-16.1,30.8-11.1
			c12.7,4.9,19.5,17.9,15.1,29C458.2,304,444.4,309,431.8,304z"/>
	</g>
	<g>
		<path class="st2" d="M419.4,304.6c-7.2-5.6-11.3-13.4-12.2-19.5c-0.9,2.4-0.7,4.1-0.4,6.1c0.3,2.1,0.6,4.5-0.5,8
			c-1.1,3.7-3.2,7.1-6.6,12.1l-0.3,0.5c-0.8,1.2-1.4,2.1-2.2,3.7c-1.5,3.2-3,6.4-1.5,8.8c1,1.6,3.1,2.4,3.7,2.5
			c3.5,1.1,7.1-1.2,9.3-2.5c1.2-0.7,1.7-1.2,2.4-1.9c0.4-0.3,0.8-0.7,1.4-1.2c1.1-0.8,4.3-3.4,13.7-5.5c6-1.3,10.7-1.7,14.6-2
			c5.2-0.4,7.6-0.6,9.1-2.5C442.9,312.7,429.9,312.8,419.4,304.6z"/>
	</g>
	<g>
		<path class="st2" d="M454.7,306.8c-1.5-1.2-3.2-0.3-4.1,0.2c-0.1,0-0.2,0.1-0.2,0.1c-1.3,0.4-16.3,4.2-28.4-5.3
			c-7.9-6.2-11.6-15.5-10.5-20.6l0.1-0.4c0.5-2,0.9-4-1.1-4.9c-0.6-0.3-1.2-0.3-1.8-0.1c-2.3,0.7-4.9,6.4-4.9,6.5
			c-1.7,3.8-1.4,6.3-1.1,8.7c0.2,2,0.5,3.8-0.4,6.6c-0.9,3.1-2.6,5.8-6.2,11.2l-0.3,0.5c-0.8,1.2-1.6,2.4-2.4,4.2
			c-1.8,3.8-3.8,8.1-1.2,12.1c1.5,2.3,3.8,3.6,5.4,4.2c0.4,0.1,0.7,0.2,0.9,0.3c5.5,1.7,10.3-1.3,12.9-2.9c1.4-0.9,2.2-1.6,2.9-2.2
			c0.4-0.3,0.7-0.7,1.2-1c2.4-1.9,6.5-3.5,12.2-4.8c5.7-1.3,10.3-1.6,13.9-1.9c5.5-0.4,9.5-0.7,12-4
			C454.9,311.6,456.8,308.4,454.7,306.8z M451.8,312.2c-3.4,4.6-10.7,2.1-24.8,5.2c-8.6,1.9-11.7,4.2-13,5.2c-1.5,1.2-2,1.9-4,3.2
			c-2.4,1.5-6.6,4.1-11.1,2.7c-0.5-0.2-3.5-1.1-5-3.5c-2-3.2-0.3-7,1.3-10.5c0.9-1.9,1.7-3.1,2.7-4.5c3.5-5.2,5.4-8.2,6.4-11.6
			c2-6.7-1.5-8.8,1.4-15.2c1.2-2.8,3.4-5.8,4-5.5c0.4,0.2-0.1,2.3-0.3,3c-1.2,5.6,2.7,15.7,11.3,22.5c11.8,9.2,26.5,6.9,30.6,5.7
			c0.4-0.1,1.7-1.1,2.1-0.7C454,308.6,452.6,311.2,451.8,312.2z"/>
	</g>
	<g>
		<path class="st2" d="M450.3,288.1c-0.4-1.1-6.5-0.5-7.9-3.1c-1-1.8,1.1-3.6,0-4.7c-1.2-1.3-4.3,0.5-6.1-0.8
			c-2.4-1.7-0.1-7.1-0.8-7.4c-0.5-0.2-2.7,3.2-8.7,15.4l1.9,0.9c2.1-4.3,3.7-7.3,4.8-9.5c0.3,0.7,0.8,1.4,1.6,2c1.7,1.2,3.6,1,5,0.9
			c0.1,0,0.2,0,0.3,0c-0.3,1-0.7,2.4,0.1,4c1,1.8,3.1,2.6,5,3.1c-2.1,0.8-5.8,2.1-12.2,3.8l0.8,1.8
			C447.4,290.7,450.6,288.9,450.3,288.1z"/>
	</g>
	<g>
		
			<rect x="446.5" y="243.9" transform="matrix(0.3632 -0.9317 0.9317 0.3632 58.6074 577.8801)" class="st2" width="11" height="4.2"/>
	</g>
	<g>
		<polygon class="st2" points="478.2,255.4 469.7,262.3 472.6,265.2 481.2,258.3 		"/>
	</g>
	<g>
		<polygon class="st2" points="490.1,277.5 479.1,278.8 480.1,282.6 491.1,281.2 		"/>
	</g>
	<g>
		<polygon class="st2" points="428.7,246.1 425.8,236.4 421.8,237 424.6,246.7 		"/>
	</g>
</g>
</svg>
